<?xml version="1.0" standalone="no"?>
<!DOCTYPE svg PUBLIC "-//W3C//DTD SVG 20010904//EN"
 "http://www.w3.org/TR/2001/REC-SVG-20010904/DTD/svg10.dtd">
<svg version="1.0" xmlns="http://www.w3.org/2000/svg"
 width="216.000000pt" height="201.000000pt" viewBox="0 0 216.000000 201.000000"
 preserveAspectRatio="xMidYMid meet">

<g transform="translate(0.000000,201.000000) scale(0.100000,-0.100000)"
fill="#e5b80b" stroke="none">
<path d="M1566 1848 c-13 -83 -12 -105 4 -143 10 -22 35 -56 57 -76 25 -24 44
-54 55 -88 9 -29 13 -51 8 -49 -4 2 -53 40 -108 86 -77 64 -105 93 -117 125
-9 23 -29 52 -44 64 -25 19 -140 57 -149 49 -2 -2 7 -28 20 -58 27 -64 66 -99
123 -113 71 -17 335 -249 310 -273 -12 -12 -152 63 -175 94 -34 45 -79 64
-150 64 -33 0 -60 -3 -60 -6 0 -14 68 -87 92 -100 15 -8 49 -14 76 -14 36 0
74 -11 148 -45 54 -24 104 -52 111 -61 32 -43 78 -253 65 -293 -7 -22 -101
123 -108 167 -9 60 -36 95 -95 130 -30 17 -55 29 -57 27 -2 -2 1 -29 7 -60 13
-68 40 -109 91 -135 27 -14 58 -46 100 -107 61 -87 62 -89 57 -143 -5 -59 -37
-161 -71 -225 l-20 -40 -9 85 c-8 71 -7 93 8 136 11 34 15 62 10 85 -7 34 -55
119 -67 119 -11 0 -38 -93 -38 -134 0 -27 8 -54 24 -77 19 -28 26 -57 35 -148
11 -106 11 -113 -9 -141 -27 -38 -150 -150 -190 -174 l-32 -18 7 23 c18 58 70
146 101 172 19 16 41 45 49 64 17 40 20 119 5 128 -16 10 -90 -56 -106 -94 -8
-18 -14 -57 -15 -85 0 -40 -11 -72 -47 -145 -45 -91 -49 -95 -97 -114 -110
-44 -225 -51 -212 -14 7 23 96 74 138 80 56 7 88 32 123 97 l29 53 -59 -8
c-70 -8 -105 -31 -136 -88 -14 -25 -45 -57 -79 -80 l-56 -38 -56 38 c-36 25
-62 51 -73 77 -23 49 -75 83 -141 92 -29 4 -53 4 -53 0 0 -16 40 -83 62 -103
26 -25 69 -43 101 -43 23 0 127 -66 127 -81 0 -34 -108 -26 -213 16 l-63 25
-44 102 c-35 79 -44 111 -42 144 5 53 -20 102 -72 143 -21 17 -43 31 -47 31
-16 0 -10 -110 7 -143 9 -18 32 -45 50 -60 21 -17 48 -59 69 -104 19 -42 35
-78 35 -80 0 -7 -44 19 -90 54 -25 18 -69 61 -98 96 l-53 62 6 100 c5 83 11
110 36 158 16 31 29 70 29 85 0 33 -28 119 -41 127 -14 9 -69 -97 -69 -133 0
-18 7 -49 15 -69 12 -29 14 -56 9 -120 -4 -46 -11 -83 -16 -83 -13 0 -54 97
-71 167 -29 114 -28 128 4 175 17 24 44 64 62 89 18 27 49 56 76 70 25 13 53
38 64 56 17 30 36 133 24 133 -4 0 -26 -9 -49 -21 -51 -24 -85 -72 -94 -131
-8 -49 -107 -194 -112 -165 -6 30 18 160 43 230 13 38 25 70 27 72 2 2 49 24
106 49 80 36 113 46 150 45 61 -2 99 18 140 75 l33 46 -59 0 c-73 0 -120 -19
-151 -60 -23 -31 -165 -109 -177 -97 -13 12 53 86 149 166 90 77 146 109 188
111 26 0 78 64 100 119 18 49 18 52 2 47 -10 -3 -39 -10 -64 -16 -54 -14 -103
-56 -119 -104 -8 -25 -39 -57 -116 -121 -58 -48 -108 -85 -110 -82 -12 12 40
119 71 145 60 53 74 101 59 195 -4 20 -10 37 -15 37 -18 0 -81 -65 -100 -103
-17 -32 -19 -50 -14 -97 8 -68 -18 -152 -85 -274 -22 -41 -53 -109 -69 -151
l-28 -78 -7 36 c-4 23 -1 57 10 93 12 42 14 65 6 93 -9 36 -69 130 -84 131 -3
0 -14 -23 -23 -51 -24 -72 -16 -135 23 -190 38 -53 62 -161 62 -279 0 -43 7
-114 15 -157 8 -43 15 -79 15 -81 0 -2 -11 10 -25 26 -13 16 -30 53 -36 82 -6
30 -22 64 -38 81 -25 28 -134 83 -144 73 -2 -3 2 -33 11 -67 17 -73 54 -117
116 -141 46 -18 140 -122 190 -211 16 -27 55 -83 88 -123 l59 -73 -38 16 c-21
8 -51 31 -68 50 -44 50 -92 67 -170 59 -41 -4 -65 -11 -65 -19 0 -7 22 -33 49
-58 54 -50 94 -63 164 -53 52 8 178 -34 265 -89 30 -18 89 -46 133 -61 43 -15
76 -31 73 -36 -8 -13 -67 -9 -114 7 -30 11 -53 12 -80 6 -44 -10 -146 -80
-133 -92 4 -4 33 -14 65 -22 72 -19 123 -10 174 31 31 25 57 34 129 46 113 20
167 20 279 0 71 -12 98 -22 128 -46 57 -45 103 -52 182 -27 36 11 66 21 66 24
0 2 -23 20 -50 40 -68 50 -108 58 -184 38 -40 -11 -72 -14 -91 -9 -29 8 -28 9
35 31 68 23 164 69 190 89 8 7 54 27 102 45 72 27 96 31 133 25 73 -10 128 10
175 66 22 26 40 50 40 52 0 3 -30 8 -67 11 -79 8 -138 -13 -173 -61 -19 -26
-82 -62 -106 -62 -4 0 19 27 49 60 31 33 73 90 93 126 57 102 144 197 203 223
63 27 96 70 111 144 6 32 10 60 8 63 -8 7 -124 -54 -145 -77 -12 -13 -28 -51
-37 -83 -8 -34 -26 -70 -39 -84 l-25 -25 14 59 c8 33 17 106 19 164 8 170 22
238 61 296 18 27 37 64 40 82 6 31 -22 162 -35 162 -4 0 -23 -22 -44 -49 -45
-61 -54 -110 -34 -182 11 -36 13 -65 8 -89 -9 -37 -10 -35 -32 35 -6 22 -38
92 -69 155 -73 146 -92 204 -89 277 4 81 -13 121 -70 171 l-50 42 -5 -32z"/>
</g>
</svg>
