<?xml version="1.0" standalone="no"?>
<!DOCTYPE svg PUBLIC "-//W3C//DTD SVG 20010904//EN"
 "http://www.w3.org/TR/2001/REC-SVG-20010904/DTD/svg10.dtd">
<svg version="1.0" xmlns="http://www.w3.org/2000/svg"
 width="512.000000pt" height="98.000000pt" viewBox="0 0 512.000000 98.000000"
 preserveAspectRatio="xMidYMid meet">

<g transform="translate(0.000000,98.000000) scale(0.100000,-0.100000)"
fill="#000" stroke="none">
<path d="M364 780 c-110 -16 -213 -91 -257 -188 -33 -71 -31 -217 3 -287 34
-70 108 -139 175 -164 145 -54 333 -4 391 104 17 31 17 37 4 45 -11 7 -25 -1
-55 -34 -64 -68 -95 -81 -205 -81 -108 0 -147 14 -207 74 -46 46 -74 108 -80
180 -13 146 80 270 226 301 63 13 134 4 192 -26 30 -15 81 -62 95 -87 12 -21
44 -13 44 10 0 25 -38 70 -87 102 -69 46 -152 64 -239 51z"/>
<path d="M767 773 c-9 -8 -9 -616 -1 -637 3 -9 14 -16 24 -16 17 0 19 14 22
168 4 186 12 216 71 252 39 24 116 26 158 4 56 -28 69 -77 69 -262 l0 -163 23
3 c22 3 22 4 22 178 0 168 -1 177 -25 218 -42 75 -118 104 -210 82 -28 -7 -64
-23 -81 -37 l-29 -25 0 121 c0 111 -2 121 -18 121 -10 0 -22 -3 -25 -7z"/>
<path d="M1237 773 c-4 -3 -7 -15 -7 -25 0 -13 7 -18 25 -18 20 0 25 5 25 25
0 18 -5 25 -18 25 -10 0 -22 -3 -25 -7z"/>
<path d="M2271 758 c-5 -13 -61 -155 -125 -316 -64 -161 -117 -298 -119 -305
-1 -7 8 -12 22 -12 20 0 28 12 58 87 l35 88 162 0 163 0 34 -88 c27 -70 38
-88 57 -90 14 -2 22 2 22 12 0 8 -56 156 -124 328 -116 293 -125 313 -150 316
-20 3 -28 -2 -35 -20z m169 -403 c0 -7 -48 -10 -137 -10 -116 0 -137 3 -135
15 2 8 33 91 70 183 l66 168 68 -172 c37 -96 68 -178 68 -184z"/>
<path d="M1511 599 c-62 -15 -143 -97 -159 -161 -16 -62 -15 -94 3 -156 31
-103 114 -162 227 -162 76 0 151 31 192 80 25 31 26 34 11 49 -15 15 -19 13
-43 -15 -34 -39 -79 -63 -136 -70 -124 -17 -225 87 -214 220 14 169 218 237
345 114 31 -30 63 -33 63 -7 0 17 -70 80 -107 95 -44 19 -130 25 -182 13z"/>
<path d="M3258 599 c-183 -43 -245 -283 -106 -416 45 -44 96 -63 166 -63 80 0
141 23 187 70 37 38 38 41 22 57 -15 15 -18 15 -38 -10 -25 -32 -80 -63 -131
-72 -102 -19 -228 72 -228 166 0 18 9 19 216 19 l217 0 -6 49 c-12 98 -72 168
-165 195 -64 18 -79 18 -134 5z m176 -72 c20 -16 45 -46 56 -67 37 -72 42 -70
-170 -70 -207 0 -201 -2 -179 57 14 37 56 82 94 99 19 9 55 13 96 11 54 -2 73
-7 103 -30z"/>
<path d="M3770 598 c-19 -5 -50 -21 -67 -34 l-33 -25 0 30 c0 26 -4 31 -25 31
l-25 0 2 -237 c3 -236 3 -238 25 -241 21 -3 21 -1 25 170 3 192 9 210 71 248
39 24 116 26 157 5 56 -29 65 -61 68 -252 3 -163 5 -173 23 -173 10 0 20 6 20
13 6 47 -4 338 -12 364 -13 41 -67 89 -116 102 -45 13 -66 13 -113 -1z"/>
<path d="M4722 600 c-117 -28 -199 -163 -172 -284 28 -126 111 -195 234 -196
84 0 134 18 185 67 42 40 44 44 28 60 -15 15 -18 15 -38 -10 -55 -71 -175 -92
-265 -46 -54 28 -94 83 -94 132 l0 27 215 0 215 0 0 28 c0 146 -155 258 -308
222z m156 -59 c20 -10 45 -27 54 -38 18 -19 48 -84 48 -103 0 -6 -66 -10 -190
-10 -185 0 -190 1 -190 20 0 42 51 108 105 138 33 18 131 14 173 -7z"/>
<path d="M1232 363 c3 -230 4 -238 23 -238 19 0 20 8 23 238 l2 237 -25 0 -25
0 2 -237z"/>
<path d="M2620 591 c0 -14 170 -455 179 -464 5 -5 19 -7 32 -5 21 3 34 29 111
228 48 124 87 231 88 238 0 8 -9 12 -22 10 -20 -3 -34 -31 -98 -200 -41 -108
-78 -199 -81 -202 -6 -6 -18 24 -110 267 -46 123 -54 137 -75 137 -13 0 -24
-4 -24 -9z"/>
<path d="M4090 435 c0 -176 8 -215 53 -263 35 -38 72 -52 132 -52 54 0 125 25
140 50 10 16 25 1 25 -26 0 -17 5 -24 20 -24 19 0 20 7 20 241 l0 240 -22 -3
c-23 -3 -23 -6 -28 -173 -4 -141 -8 -176 -23 -198 -40 -62 -116 -82 -189 -49
-70 31 -78 57 -78 256 l0 166 -25 0 -25 0 0 -165z"/>
</g>
</svg>
